<svg width="134" height="134" viewBox="0 0 134 134" fill="none" xmlns="http://www.w3.org/2000/svg">
<circle cx="67" cy="67" r="67" fill="#D8D8D8"/>
<mask id="mask0_13794_65629" style="mask-type:alpha" maskUnits="userSpaceOnUse" x="0" y="0" width="134" height="134">
<circle cx="67" cy="67" r="67" fill="white"/>
</mask>
<g mask="url(#mask0_13794_65629)">
<path d="M0.307861 0.613281H134.564V138.369H0.307861V0.613281Z" fill="url(#paint0_linear_13794_65629)"/>
<path d="M60.906 13.7824V49.5571C60.9053 49.7405 60.9836 49.9153 61.1211 50.0368C62.1964 51.0211 67.1511 54.9998 72.3208 50.0368C72.4531 49.9089 72.5277 49.7328 72.5276 49.5488V13.7824C72.5276 13.4215 72.2351 13.1289 71.8742 13.1289H61.5595C61.1986 13.1289 60.906 13.4215 60.906 13.7824Z" fill="#F1EEF1"/>
<g style="mix-blend-mode:multiply">
<path d="M56.6967 52.8702C56.4403 52.8123 56.1921 52.7709 55.9357 52.7296C52.6271 52.2994 49.2771 54.0613 47.1182 56.6172C44.9593 59.1731 43.8096 62.4073 42.9824 65.6746C40.8235 74.1613 40.716 83.045 40.6912 91.7633C40.6912 100.035 40.8731 108.836 45.6541 115.536C50.6998 122.6 59.9392 125.685 68.6161 125.462C76.4245 125.247 84.6878 122.244 88.8319 115.627C92.033 110.507 92.2977 104.154 92.4631 98.1159C92.6865 89.9849 92.9098 81.8208 92.0496 73.7229C91.5533 69.0743 90.6682 64.3677 88.4349 60.265C86.5572 56.824 82.6447 52.3491 78.4676 51.9189C74.2904 51.4888 72.1481 56.8819 67.8386 57.006C63.8351 57.1383 60.5678 53.7635 56.6967 52.8702Z" fill="#A183BC"/>
</g>
<path d="M76.5802 16.4453C76.5802 16.4453 57.6548 35.5114 71.9564 42.1617C85.1 48.2662 92.3294 30.0273 76.5802 16.4453Z" fill="#F59080"/>
<g style="mix-blend-mode:multiply">
<path d="M50.2509 66.173C50.2509 66.173 49.1756 94.5694 50.2509 94.8093C51.3262 95.0492 83.7922 96.4636 84.3464 94.8093C84.9006 93.155 85.736 66.2971 83.7178 66.173C81.6995 66.0489 53.0963 64.7668 50.2509 66.173Z" fill="#A183BC"/>
</g>
<g style="mix-blend-mode:multiply">
<path d="M53.0306 102.363C51.1529 102.842 49.5648 104.017 49.7798 106.225C49.9947 107.734 50.9469 109.037 52.3192 109.7C53.6854 110.342 55.2181 110.541 56.7032 110.27C58.1942 110.152 59.5526 109.368 60.4006 108.136C61.0576 106.813 60.8796 105.228 59.9456 104.083C59.0036 102.976 57.6635 102.283 56.2151 102.156C55.1498 102.034 54.0712 102.104 53.0306 102.363Z" fill="#A183BC"/>
</g>
<g style="mix-blend-mode:multiply">
<path d="M81.7348 102.363C83.6125 102.842 85.2006 104.017 84.9856 106.225C84.7707 107.734 83.8185 109.037 82.4462 109.7C81.08 110.342 79.5473 110.541 78.0623 110.27C76.5712 110.152 75.2128 109.368 74.3648 108.136C73.7079 106.813 73.8858 105.228 74.8198 104.083C75.7618 102.976 77.1019 102.283 78.5503 102.156C79.6156 102.034 80.6942 102.104 81.7348 102.363Z" fill="#A183BC"/>
</g>
<g style="mix-blend-mode:multiply">
<path d="M65.3225 101.206C65.3225 100.946 65.5338 100.734 65.7945 100.734H67.9358C68.1965 100.734 68.4078 100.946 68.4078 101.206V117.236C68.4078 117.496 68.1965 117.708 67.9358 117.708H65.7945C65.5338 117.708 65.3225 117.496 65.3225 117.236V101.206Z" fill="#A183BC"/>
</g>
<g style="mix-blend-mode:multiply">
<path d="M84.2398 32.55C84.2033 31.9666 83.7695 31.4853 83.193 31.3885C82.6165 31.2918 82.0494 31.6051 81.8244 32.1447C80.2678 35.9719 76.7476 38.6453 72.643 39.1176C72.643 39.1176 72.188 39.829 73.1558 40.6231C74.1236 41.4171 79.4588 42.3932 82.2546 38.2408C83.4848 36.5927 84.1779 34.6058 84.2398 32.55Z" fill="#F59080"/>
</g>
</g>
<defs>
<linearGradient id="paint0_linear_13794_65629" x1="-57.8466" y1="36.5893" x2="38.9601" y2="195.858" gradientUnits="userSpaceOnUse">
<stop stop-color="#9EB5D7"/>
<stop offset="0.41" stop-color="#C6D1E4"/>
<stop offset="0.79" stop-color="#E4E6EE"/>
<stop offset="1" stop-color="#F0EEF2"/>
</linearGradient>
</defs>
</svg>
