<svg width="134" height="134" viewBox="0 0 134 134" fill="none" xmlns="http://www.w3.org/2000/svg">
<mask id="mask0_13794_65657" style="mask-type:alpha" maskUnits="userSpaceOnUse" x="0" y="0" width="134" height="134">
<path fill-rule="evenodd" clip-rule="evenodd" d="M0 67.0001C0 29.9971 29.9969 0 67.0001 0C104.003 0 134 29.9971 134 67.0001C134 104.003 104.003 134 67.0001 134C29.9969 134 0 104.003 0 67.0001Z" fill="white"/>
</mask>
<g mask="url(#mask0_13794_65657)">
<path d="M-4.94897 141.438H139.15V-6.77734H-4.94897V141.438Z" fill="url(#paint0_linear_13794_65657)"/>
</g>
<path fill-rule="evenodd" clip-rule="evenodd" d="M46.2922 75.4448C41.6294 62.2687 53.782 50.1164 66.958 54.7788C71.2123 56.2843 74.5736 59.6457 76.0794 63.9004C80.7419 77.076 68.5896 89.2287 55.4136 84.5662C51.1591 83.0606 47.7977 79.6993 46.2922 75.4448ZM65.2268 90.798C75.1542 88.9101 82.6639 80.1979 82.6896 69.7267C82.7188 57.9759 73.2414 48.3337 61.4915 48.1701C49.4744 48.0027 39.6804 57.6941 39.6804 69.6725C39.6804 80.1679 47.1989 88.9069 57.1436 90.798C57.7205 90.9076 58.1386 91.4108 58.1386 91.9981V104.952C58.1386 105.626 57.5916 106.173 56.9169 106.173H45.5982C45.4311 106.173 45.2954 106.309 45.2954 106.476V111.964C45.2954 112.131 45.4311 112.266 45.5982 112.266H56.9169C57.5916 112.266 58.1386 112.813 58.1386 113.488V119.548C58.1386 119.715 58.274 119.85 58.4412 119.85H63.9288C64.0962 119.85 64.2314 119.715 64.2314 119.548V113.488C64.2314 112.813 64.7786 112.266 65.4533 112.266H76.8915C77.0587 112.266 77.1941 112.131 77.1941 111.964V106.476C77.1941 106.309 77.0587 106.173 76.8915 106.173H65.4533C64.7786 106.173 64.2314 105.626 64.2314 104.952V91.9983C64.2314 91.4108 64.6499 90.9076 65.2268 90.798Z" fill="#F59080"/>
<path d="M46.2922 75.4448L47.2349 75.1112L47.2349 75.1112L46.2922 75.4448ZM66.958 54.7788L67.2916 53.8361L67.2916 53.8361L66.958 54.7788ZM76.0794 63.9003L77.0221 63.5667L77.0221 63.5667L76.0794 63.9003ZM55.4136 84.5661L55.08 85.5089H55.08L55.4136 84.5661ZM65.2268 90.798L65.4134 91.7804L65.4136 91.7804L65.2268 90.798ZM82.6896 69.7268L81.6896 69.7243V69.7243L82.6896 69.7268ZM61.4915 48.1701L61.4776 49.17H61.4776L61.4915 48.1701ZM57.1436 90.798L56.9568 91.7804L56.957 91.7804L57.1436 90.798ZM47.2349 75.1112C42.8528 62.728 54.2412 51.3397 66.6244 55.7215L67.2916 53.8361C53.3227 48.8931 40.4061 61.8094 45.3495 75.7784L47.2349 75.1112ZM66.6244 55.7215C70.5941 57.1263 73.7316 60.2638 75.1366 64.234L77.0221 63.5667C75.4156 59.0275 71.8305 55.4423 67.2916 53.8361L66.6244 55.7215ZM75.1366 64.234C79.5186 76.6167 68.1303 88.0054 55.7472 83.6234L55.08 85.5089C69.0489 90.452 81.9652 77.5353 77.0221 63.5667L75.1366 64.234ZM55.7472 83.6234C51.7773 82.2186 48.6397 79.0811 47.2349 75.1112L45.3495 75.7784C46.9557 80.3174 50.5409 83.9026 55.08 85.5089L55.7472 83.6234ZM65.4136 91.7804C75.8032 89.8046 83.6627 80.6885 83.6896 69.7292L81.6896 69.7243C81.6651 79.7074 74.5052 88.0156 65.04 89.8156L65.4136 91.7804ZM83.6896 69.7292C83.7202 57.4311 73.8035 47.3414 61.5054 47.1702L61.4776 49.17C72.6792 49.326 81.7175 58.5208 81.6896 69.7243L83.6896 69.7292ZM61.5054 47.1702C48.9299 46.9951 38.6804 57.1372 38.6804 69.6725H40.6804C40.6804 58.2511 50.019 49.0104 61.4776 49.17L61.5054 47.1702ZM38.6804 69.6725C38.6804 80.6571 46.5491 89.8012 56.9568 91.7804L57.3304 89.8156C47.8487 88.0125 40.6804 79.6787 40.6804 69.6725H38.6804ZM56.957 91.7804C57.0637 91.8007 57.1386 91.8928 57.1386 91.9981H59.1386C59.1386 90.9288 58.3774 90.0144 57.3302 89.8156L56.957 91.7804ZM57.1386 91.9981V104.952H59.1386V91.9981H57.1386ZM57.1386 104.952C57.1386 105.074 57.0393 105.173 56.9169 105.173V107.173C58.1439 107.173 59.1386 106.179 59.1386 104.952H57.1386ZM56.9169 105.173H45.5982V107.173H56.9169V105.173ZM45.5982 105.173C44.8787 105.173 44.2954 105.757 44.2954 106.476H46.2954C46.2954 106.861 45.9833 107.173 45.5982 107.173V105.173ZM44.2954 106.476V111.964H46.2954V106.476H44.2954ZM44.2954 111.964C44.2954 112.683 44.8792 113.266 45.5982 113.266V111.266C45.9829 111.266 46.2954 111.578 46.2954 111.964H44.2954ZM45.5982 113.266H56.9169V111.266H45.5982V113.266ZM56.9169 113.266C57.0393 113.266 57.1386 113.365 57.1386 113.488H59.1386C59.1386 112.261 58.1439 111.266 56.9169 111.266V113.266ZM57.1386 113.488V119.548H59.1386V113.488H57.1386ZM57.1386 119.548C57.1386 120.267 57.7218 120.85 58.4412 120.85V118.85C58.8263 118.85 59.1386 119.162 59.1386 119.548H57.1386ZM58.4412 120.85H63.9288V118.85H58.4412V120.85ZM63.9288 120.85C64.6488 120.85 65.2314 120.267 65.2314 119.548H63.2314C63.2314 119.163 63.5435 118.85 63.9288 118.85V120.85ZM65.2314 119.548V113.488H63.2314V119.548H65.2314ZM65.2314 113.488C65.2314 113.366 65.3306 113.266 65.4533 113.266V111.266C64.2265 111.266 63.2314 112.261 63.2314 113.488H65.2314ZM65.4533 113.266H76.8915V111.266H65.4533V113.266ZM76.8915 113.266C77.6113 113.266 78.1941 112.683 78.1941 111.964H76.1941C76.1941 111.579 76.506 111.266 76.8915 111.266V113.266ZM78.1941 111.964V106.476H76.1941V111.964H78.1941ZM78.1941 106.476C78.1941 105.757 77.6118 105.173 76.8915 105.173V107.173C76.5056 107.173 76.1941 106.86 76.1941 106.476H78.1941ZM76.8915 105.173H65.4533V107.173H76.8915V105.173ZM65.4533 105.173C65.3306 105.173 65.2314 105.074 65.2314 104.952H63.2314C63.2314 106.179 64.2265 107.173 65.4533 107.173V105.173ZM65.2314 104.952V91.9983H63.2314V104.952H65.2314ZM65.2314 91.9983C65.2314 91.8932 65.3063 91.8008 65.4134 91.7804L65.0402 89.8156C63.9934 90.0144 63.2314 90.9284 63.2314 91.9983H65.2314Z" fill="#F59080"/>
<path fill-rule="evenodd" clip-rule="evenodd" d="M74.3824 67.6207C66.3526 71.189 56.9506 67.5721 53.3823 59.5421C49.8141 51.5124 53.431 42.1105 61.4608 38.5422C69.4905 34.974 78.8926 38.5908 82.4609 46.6205C86.0291 54.6505 82.4122 64.0523 74.3824 67.6207ZM112.245 29.8032L96.985 23.022C96.5376 22.8231 96.0138 23.0246 95.8153 23.4719L94.0606 27.4202C93.8619 27.8675 94.0634 28.3911 94.5105 28.5898L103.2 32.4514C103.902 32.7633 103.902 33.7592 103.2 34.071L86.8316 41.3446C86.4383 41.5195 85.9773 41.3857 85.7366 41.0289C80.0132 32.5481 68.8647 29.13 59.1896 33.4291C48.3364 38.2523 43.4478 50.9604 48.2706 61.8138C53.0935 72.6672 65.8018 77.5558 76.655 72.7328C86.3301 68.4337 91.2651 57.8685 88.8062 47.9372C88.7028 47.5193 88.9126 47.0874 89.3059 46.9127L105.256 39.8249C105.977 39.5042 106.726 40.2161 106.443 40.9531L103.25 49.2523C103.074 49.7093 103.302 50.2219 103.759 50.3977L107.792 51.949C108.248 52.1247 108.761 51.8969 108.937 51.4402L116.296 32.3109C116.471 31.854 116.244 31.3414 115.787 31.1656L112.245 29.8032Z" fill="#A183BC"/>
<path d="M53.3823 59.5421L52.4684 59.9482L52.4684 59.9482L53.3823 59.5421ZM61.4608 38.5422L61.0547 37.6283L61.0547 37.6283L61.4608 38.5422ZM82.4609 46.6205L83.3748 46.2144L83.3748 46.2144L82.4609 46.6205ZM112.245 29.8032L111.839 30.7171L111.863 30.7274L111.886 30.7366L112.245 29.8032ZM96.985 23.022L96.5787 23.9357L96.5789 23.9358L96.985 23.022ZM95.8153 23.4719L96.7291 23.878L96.7293 23.8775L95.8153 23.4719ZM94.0606 27.4202L93.1468 27.014L93.1467 27.0142L94.0606 27.4202ZM94.5105 28.5898L94.9166 27.676L94.9166 27.676L94.5105 28.5898ZM103.2 32.4514L102.794 33.3653L102.794 33.3653L103.2 32.4514ZM103.2 34.071L102.794 33.1572L102.794 33.1572L103.2 34.071ZM86.8316 41.3446L86.4255 40.4308L86.4253 40.4309L86.8316 41.3446ZM85.7366 41.0289L86.5656 40.4696L86.5655 40.4695L85.7366 41.0289ZM59.1896 33.4292L58.7835 32.5153L58.7835 32.5153L59.1896 33.4292ZM48.2706 61.8138L47.3567 62.2199L47.3567 62.2199L48.2706 61.8138ZM76.655 72.7328L76.249 71.819L76.2489 71.819L76.655 72.7328ZM88.8062 47.9372L87.8355 48.1773L87.8355 48.1775L88.8062 47.9372ZM89.3059 46.9127L89.7118 47.8266L89.712 47.8265L89.3059 46.9127ZM105.256 39.8249L104.85 38.911L104.85 38.911L105.256 39.8249ZM106.443 40.9531L107.376 41.3121L106.443 40.9531ZM103.25 49.2522L102.317 48.8932L102.317 48.8932L103.25 49.2522ZM103.759 50.3977L103.4 51.331L103.4 51.331L103.759 50.3977ZM107.792 51.949L107.433 52.8824L107.433 52.8824L107.792 51.949ZM108.937 51.4402L108.004 51.0811L108.004 51.0813L108.937 51.4402ZM116.296 32.3109L117.229 32.6699L117.229 32.6697L116.296 32.3109ZM115.787 31.1656L116.146 30.2323L116.146 30.2323L115.787 31.1656ZM73.9763 66.7068C66.4513 70.0509 57.6401 66.6613 54.2961 59.136L52.4684 59.9482C56.261 68.4828 66.254 72.3271 74.7885 68.5345L73.9763 66.7068ZM54.2961 59.136C50.9522 51.611 54.3418 42.8 61.8669 39.456L61.0547 37.6283C52.5203 41.4209 48.676 51.4137 52.4684 59.9482L54.2961 59.136ZM61.8669 39.456C69.3919 36.1121 78.2031 39.5015 81.5471 47.0266L83.3748 46.2144C79.5822 37.68 69.5891 33.8359 61.0547 37.6283L61.8669 39.456ZM81.5471 47.0266C84.8909 54.5518 81.5014 63.3628 73.9763 66.7068L74.7885 68.5345C83.3229 64.7419 87.1672 54.7491 83.3748 46.2144L81.5471 47.0266ZM112.651 28.8894L97.391 22.1081L96.5789 23.9358L111.839 30.7171L112.651 28.8894ZM97.3912 22.1082C96.4393 21.6849 95.324 22.1136 94.9012 23.0663L96.7293 23.8775C96.7036 23.9355 96.636 23.9612 96.5787 23.9357L97.3912 22.1082ZM94.9015 23.0658L93.1468 27.014L94.9744 27.8263L96.7291 23.878L94.9015 23.0658ZM93.1467 27.0142C92.7238 27.9661 93.1526 29.0807 94.1044 29.5037L94.9166 27.676C94.9742 27.7016 94.9999 27.7688 94.9745 27.8261L93.1467 27.0142ZM94.1044 29.5037L102.794 33.3653L103.606 31.5376L94.9166 27.676L94.1044 29.5037ZM102.794 33.3653C102.783 33.3604 102.761 33.3446 102.744 33.3176C102.73 33.2948 102.726 33.275 102.726 33.2612C102.726 33.2475 102.73 33.2276 102.744 33.2049C102.761 33.1779 102.783 33.162 102.794 33.1572L103.606 34.9849C105.1 34.3212 105.1 32.2012 103.606 31.5376L102.794 33.3653ZM102.794 33.1572L86.4255 40.4308L87.2377 42.2585L103.606 34.9849L102.794 33.1572ZM86.4253 40.4309C86.4781 40.4074 86.5368 40.4269 86.5656 40.4696L84.9076 41.5881C85.4179 42.3445 86.3986 42.6316 87.2379 42.2584L86.4253 40.4309ZM86.5655 40.4695C80.5756 31.5937 68.9095 28.0158 58.7835 32.5153L59.5957 34.343C68.8199 30.2442 79.4508 33.5024 84.9077 41.5883L86.5655 40.4695ZM58.7835 32.5153C47.4257 37.5628 42.3097 50.8618 47.3567 62.2199L49.1844 61.4077C44.5859 51.059 49.2472 38.9419 59.5957 34.343L58.7835 32.5153ZM47.3567 62.2199C52.404 73.5779 65.7032 78.694 77.0611 73.6467L76.2489 71.819C65.9005 76.4177 53.7831 71.7564 49.1844 61.4077L47.3567 62.2199ZM77.0611 73.6467C87.187 69.1472 92.3503 58.0907 89.7769 47.6968L87.8355 48.1775C90.1799 57.6464 85.4732 67.7202 76.249 71.819L77.0611 73.6467ZM89.777 47.697C89.7893 47.7468 89.7646 47.8031 89.7118 47.8266L88.8999 45.9988C88.0606 46.3716 87.6164 47.2918 87.8355 48.1773L89.777 47.697ZM89.712 47.8265L105.662 40.7387L104.85 38.911L88.8998 45.9989L89.712 47.8265ZM105.662 40.7387C105.652 40.7432 105.624 40.7496 105.591 40.7431C105.564 40.7377 105.547 40.7263 105.537 40.7171C105.528 40.708 105.515 40.6917 105.509 40.6648C105.5 40.6325 105.505 40.6045 105.509 40.594L107.376 41.3121C107.979 39.744 106.386 38.2284 104.85 38.911L105.662 40.7387ZM105.509 40.594L102.317 48.8932L104.184 49.6113L107.376 41.3121L105.509 40.594ZM102.317 48.8932C101.943 49.8659 102.428 50.9569 103.4 51.331L104.118 49.4645C104.177 49.487 104.206 49.5528 104.184 49.6113L102.317 48.8932ZM103.4 51.331L107.433 52.8824L108.151 51.0157L104.118 49.4644L103.4 51.331ZM107.433 52.8824C108.404 53.2561 109.496 52.7717 109.87 51.7991L108.004 51.0813C108.026 51.022 108.092 50.9932 108.151 51.0157L107.433 52.8824ZM109.87 51.7992L117.229 32.6699L115.362 31.9519L108.004 51.0811L109.87 51.7992ZM117.229 32.6697C117.603 31.6975 117.118 30.6064 116.146 30.2323L115.428 32.0989C115.369 32.0764 115.34 32.0106 115.362 31.9521L117.229 32.6697ZM116.146 30.2323L112.604 28.8699L111.886 30.7366L115.428 32.0989L116.146 30.2323Z" fill="#A183BC"/>
<defs>
<linearGradient id="paint0_linear_13794_65657" x1="-67.3655" y1="31.9219" x2="36.9037" y2="203.053" gradientUnits="userSpaceOnUse">
<stop stop-color="#9EB5D7"/>
<stop offset="0.41" stop-color="#C6D1E4"/>
<stop offset="0.79" stop-color="#E4E6EE"/>
<stop offset="1" stop-color="#F0EEF2"/>
</linearGradient>
</defs>
</svg>
