<?xml version="1.0" encoding="UTF-8"?>
<svg width="36px" height="36px" viewBox="0 0 36 36" version="1.1" xmlns="http://www.w3.org/2000/svg" xmlns:xlink="http://www.w3.org/1999/xlink">
    <!-- Generator: Sketch 53.2 (72643) - https://sketchapp.com -->
    <title>Thyroid Profile</title>
    <desc>Created with Sketch.</desc>
    <g id="Page-1" stroke="none" stroke-width="1" fill="none" fill-rule="evenodd">
        <g id="Thyroid-Profile">
            <circle id="Oval-Copy-19" fill="#FFF4DD" cx="18" cy="18" r="18"></circle>
            <g id="Group-44" transform="translate(8.000000, 9.000000)" stroke="#787887">
                <path d="M1.75534762,5.09814413e-13 C1.75534762,5.09814413e-13 3.48716667,9.61418095 10.2401571,9.73385714 C17.233081,9.13547619 18.709281,5.09814413e-13 18.709281,5.09814413e-13" id="Stroke-9" stroke-width="1.5" stroke-linecap="round"></path>
                <path d="M7.65904381,3.15886251 C7.65904381,3.15886251 8.25742476,3.51731013 8.9754819,3.39763394 C9.69353905,3.27795775 10.0525676,3.10309108 11.2894152,3.2907387 C12.5256819,3.47780537 12.80512,3.15886251 12.80512,3.15886251" id="Stroke-10" stroke-linecap="round"></path>
                <path d="M9.3744219,5.18604571 L10.9302124,5.18604571" id="Stroke-11" stroke-linecap="round"></path>
                <path d="M1.687539e-12,17.0734352 C1.687539e-12,17.0734352 4.94680952,16.953759 5.42493333,13.9624352 L5.42493333,7.57254" id="Stroke-12" stroke-width="1.5" stroke-linecap="round"></path>
                <path d="M20.3046924,17.3128457 C20.3046924,17.3128457 15.3578829,17.1931695 14.8791781,14.2018457 L14.8791781,7.81195048" id="Stroke-13" stroke-width="1.5" stroke-linecap="round"></path>
                <path d="M10.2404476,11.9277076 C10.2404476,11.9277076 11.7811333,10.898841 12.5259143,11.6883552 C13.1242952,12.3233362 12.1668857,15.5179933 12.1668857,15.5179933 C12.1668857,15.5179933 10.651181,16.7141743 10.1521429,15.5179933 C10.1521429,15.5179933 8.93562857,16.8745171 8.21757143,15.3582314 C8.21757143,15.3582314 7.30024762,12.7253552 7.65927619,11.7685267 C8.01830476,10.8105362 10.2404476,11.9277076 10.2404476,11.9277076 Z" id="Stroke-14"></path>
            </g>
        </g>
    </g>
</svg>